<svg width="80" height="80" viewBox="0 0 80 80" fill="none" xmlns="http://www.w3.org/2000/svg">
<path d="M16.6667 70C14.8333 70 13.2644 69.3478 11.96 68.0433C10.6556 66.7389 10.0022 65.1689 10 63.3333V16.6667C10 14.8333 10.6533 13.2644 11.96 11.96C13.2667 10.6556 14.8356 10.0022 16.6667 10H63.3333C65.1667 10 66.7367 10.6533 68.0433 11.96C69.35 13.2667 70.0022 14.8356 70 16.6667V63.3333C70 65.1667 69.3478 66.7367 68.0433 68.0433C66.7389 69.35 65.1689 70.0022 63.3333 70H16.6667ZM20 56.6667H60L47.5 40L37.5 53.3333L30 43.3333L20 56.6667Z" fill="black"/>
</svg>
