<?xml version="1.0" standalone="no"?>
<!DOCTYPE svg PUBLIC "-//W3C//DTD SVG 20010904//EN"
 "http://www.w3.org/TR/2001/REC-SVG-20010904/DTD/svg10.dtd">
<svg version="1.0" xmlns="http://www.w3.org/2000/svg"
 width="671.000000pt" height="680.000000pt" viewBox="0 0 671.000000 680.000000"
 preserveAspectRatio="xMidYMid meet">

<g transform="translate(0.000000,680.000000) scale(0.100000,-0.100000)"
fill="#000000" stroke="none">
<path d="M4512 6740 c-161 -42 -108 5 -1177 -1060 -539 -537 -1188 -1183
-1441 -1436 -515 -512 -526 -526 -571 -698 -30 -116 -30 -216 0 -333 48 -186
-54 -74 1536 -1663 1092 -1092 1450 -1444 1494 -1469 117 -69 170 -81 345 -81
149 0 161 2 236 30 392 146 551 605 338 974 -28 49 -268 294 -1188 1215 -635
634 -1154 1156 -1154 1159 0 4 517 524 1149 1157 842 842 1160 1167 1190 1214
136 213 130 504 -14 722 -87 130 -241 239 -386 274 -91 21 -265 19 -357 -5z"/>
</g>
</svg>
