<?xml version="1.0" encoding="UTF-8"?>
<svg version="1.1" xmlns="http://www.w3.org/2000/svg" width="676" height="670">
<path d="M0 0 C223.08 0 446.16 0 676 0 C676 221.1 676 442.2 676 670 C452.92 670 229.84 670 0 670 C0 448.9 0 227.8 0 0 Z " fill="#FEFEFE" transform="translate(0,0)"/>
<path d="M0 0 C1.32 0 2.64 0 4 0 C6.64936122 5.26906712 9.29446577 10.54025657 11.9375 15.8125 C12.32616241 16.58721649 12.71482483 17.36193298 13.11526489 18.16012573 C18.04912691 28.00057812 22.94760344 37.84897543 27.48608398 47.88012695 C28.98603827 51.60590776 28.98603827 51.60590776 32 54 C32.4877692 55.67420647 32.96940336 57.35057157 33.41207886 59.03726196 C34.37505754 62.2521062 35.93057032 65.17077516 37.47265625 68.13671875 C38.19437326 69.55246964 38.91587955 70.96832795 39.63720703 72.38427734 C40.21236053 73.50573151 40.21236053 73.50573151 40.7991333 74.64984131 C42.91029483 78.7814944 44.98186367 82.93299598 47.05859375 87.08203125 C47.948472 88.85746985 48.83844707 90.63285992 49.72851562 92.40820312 C50.17493408 93.29902588 50.62135254 94.18984863 51.08129883 95.10766602 C51.9829213 96.90587941 52.88526117 98.70373328 53.78833008 100.5012207 C55.13042144 103.17299243 56.47022575 105.84589255 57.80859375 108.51953125 C58.24239349 109.38554962 58.67619324 110.25156799 59.12313843 111.14382935 C61.33375477 115.5789985 63.4977486 120.03064583 65.59423828 124.52099609 C66.21142479 125.84256966 66.21142479 125.84256966 66.84107971 127.19084167 C67.62065992 128.86929764 68.39448019 130.55044431 69.16172791 132.23457336 C70.77855459 136.31680021 70.77855459 136.31680021 74 139 C74.63642729 141.01535307 75.27251323 143.03081423 75.9074707 145.04663086 C77.22388783 148.6052226 78.88237617 151.94312764 80.60546875 155.31640625 C81.32757135 156.74498658 82.04957357 158.17361766 82.77148438 159.60229492 C83.32594238 160.69530411 83.32594238 160.69530411 83.89160156 161.81039429 C85.64312326 165.27046947 87.37364999 168.7409713 89.10546875 172.2109375 C89.78569739 173.57166953 90.46603601 174.93234659 91.14648438 176.29296875 C92.51888021 179.03776042 93.89127604 181.78255208 95.26367188 184.52734375 C95.60165802 185.20315491 95.93964417 185.87896606 96.28787231 186.57525635 C96.94910051 187.89803396 97.60982034 189.22106584 98.26998901 190.54437256 C99.70145533 193.41247543 101.14096595 196.27573748 102.60009766 199.12988281 C103.05819824 200.02803711 103.51629883 200.92619141 103.98828125 201.8515625 C104.57863159 202.9974585 104.57863159 202.9974585 105.1809082 204.16650391 C106 206 106 206 106 208 C106.56974045 208.0514769 107.1394809 208.1029538 107.72648621 208.1559906 C114.88560833 208.8341042 121.99328381 209.78173887 129.11328125 210.78515625 C130.37508209 210.96167725 131.63688293 211.13819824 132.93692017 211.32006836 C136.35194446 211.7982956 139.76653955 212.27952117 143.1810112 212.76167679 C145.32966748 213.0649229 147.4784349 213.36737072 149.62722778 213.66964722 C169.8209681 216.51198799 189.99395763 219.47119146 210.15252686 222.55419922 C228.58836684 225.37152756 247.0470024 227.99615835 265.51971436 230.55960083 C289.04631802 233.82742049 312.52947777 237.35275234 336 241 C336.96850586 243.48657227 336.96850586 243.48657227 337 247 C334.91565208 250.13649617 332.21577291 252.61954688 329.50390625 255.21484375 C328.72240707 255.98880997 327.9409079 256.76277618 327.13572693 257.56019592 C324.627239 260.03611722 322.09528867 262.48646849 319.5625 264.9375 C317.88973442 266.58372145 316.21849162 268.23149176 314.54882812 269.88085938 C302.4389787 281.7944606 302.4389787 281.7944606 296.91137695 286.56884766 C292.99719791 289.95539735 289.35082525 293.55373778 285.7265625 297.24609375 C284.39465814 298.5906205 283.06262328 299.93501799 281.73046875 301.27929688 C279.66136069 303.37339655 277.59390932 305.46908677 275.52880859 307.56713867 C273.51569682 309.61026514 271.49656228 311.64728047 269.4765625 313.68359375 C268.85576813 314.31784775 268.23497375 314.95210175 267.59536743 315.60557556 C266.1010939 317.10863494 264.55510291 318.55996673 263 320 C262.34 320 261.68 320 261 320 C261 320.66 261 321.32 261 322 C259.75976563 323.21679687 259.75976563 323.21679687 257.90625 324.71875 C253.78746866 328.22116442 249.96372253 331.94888539 246.15625 335.78125 C245.53886963 336.40193359 244.92148926 337.02261719 244.28540039 337.66210938 C242.3549692 339.60613689 240.42705937 341.55263034 238.5 343.5 C224.24454088 357.90570486 224.24454088 357.90570486 218.14160156 363.07666016 C215.10739166 365.801638 212.2523436 368.69312329 209.3828125 371.58984375 C208.79437561 372.18378937 208.20593872 372.77773499 207.59967041 373.38967896 C205.14489888 375.87225023 202.69389501 378.35847256 200.24707031 380.84887695 C198.442454 382.68350719 196.63181915 384.5120205 194.8203125 386.33984375 C193.98755295 387.19279274 193.98755295 387.19279274 193.13796997 388.06297302 C191.79613293 389.41362049 190.40245259 390.71240459 189 392 C188.34 392 187.68 392 187 392 C187 392.66 187 393.32 187 394 C185.42578125 395.55078125 185.42578125 395.55078125 183.3125 397.3125 C181.86287622 398.52734478 180.42632215 399.75788001 179 401 C178.0925 401.68835938 177.185 402.37671875 176.25 403.0859375 C172.94203091 407.37021691 173.44636937 411.06327178 173.6875 416.3125 C173.71005859 417.24384766 173.73261719 418.17519531 173.75585938 419.13476562 C173.81457922 421.4248396 173.89663142 423.71157875 174 426 C174.66 426 175.32 426 176 426 C178.35172545 437.68467361 179.59601209 449.08932194 180 461 C180.66 461 181.32 461 182 461 C184.08765715 472.34425017 185.5444951 483.47101379 186 495 C186.66 495 187.32 495 188 495 C188.33768172 498.06203674 188.66936893 501.12469458 189 504.1875 C189.09539063 505.05181641 189.19078125 505.91613281 189.2890625 506.80664062 C189.72690189 510.88792925 190.13621913 514.88788502 190 519 C190.66 519 191.32 519 192 519 C194.35172545 530.68467361 195.59601209 542.08932194 196 554 C196.66 554 197.32 554 198 554 C198.33675279 556.89547264 198.66951734 559.79131072 199 562.6875 C199.09539063 563.50412109 199.19078125 564.32074219 199.2890625 565.16210938 C199.73870522 569.12860052 200.13034543 573.00002463 200 577 C200.66 577 201.32 577 202 577 C204.20832555 588.63051455 205.83002734 600.22130025 207 612 C207.1134375 613.10730469 207.226875 614.21460938 207.34375 615.35546875 C207.56860853 617.56970068 207.78561895 619.7847291 208 622 C208.66 622 209.32 622 210 622 C210.33 626.95 210.66 631.9 211 637 C204.77632598 636.56627051 200.77530903 635.18018869 195.5 631.9375 C194.08260537 631.10357368 192.66328225 630.27291769 191.2421875 629.4453125 C190.17436035 628.82124512 190.17436035 628.82124512 189.08496094 628.18457031 C185.99411922 626.42850895 182.82124612 624.86584716 179.625 623.3125 C172.27013121 619.7128701 165.07375336 615.83863152 157.875 611.9375 C150.09741377 607.72470973 142.31357521 603.58478083 134.375 599.68359375 C129.42750777 597.2155739 124.54648562 594.62525121 119.65844727 592.04199219 C113.28343263 588.67310766 106.89463916 585.33147285 100.5 582 C97.58754436 580.48098292 94.67530924 578.96154413 91.76318359 577.44189453 C89.99283581 576.5180852 88.22234146 575.59455664 86.45166016 574.67138672 C77.51338057 570.0075464 68.63019994 565.26336489 59.8125 560.375 C53.51868058 556.89062169 47.20086657 553.507623 40.73217773 550.35913086 C36.68036089 548.37564327 32.68238496 546.30894406 28.70695496 544.17581177 C26.09287283 542.77380844 23.47252126 541.38370698 20.8522644 539.99328613 C19.54214233 539.29372935 18.23505107 538.58846435 16.93118286 537.87731934 C15.08408696 536.87072144 13.22714845 535.88491596 11.3671875 534.90234375 C10.28550293 534.31960693 9.20381836 533.73687012 8.08935547 533.13647461 C3.88842978 531.59108903 1.30576605 532.03085716 -2.78768921 533.75138855 C-4.82811606 534.71349071 -6.82380997 535.73889877 -8.8203125 536.7890625 C-9.5602243 537.17057465 -10.30013611 537.55208679 -11.06246948 537.94515991 C-12.62601288 538.75334608 -14.18751344 539.56549521 -15.74707031 540.38134766 C-18.09257622 541.60804243 -20.44400075 542.82266543 -22.796875 544.03515625 C-30.50009766 548.02163503 -38.07897923 552.13557824 -45.54003906 556.56054688 C-48.57597463 558.33703319 -51.64723939 559.90271221 -54.8125 561.4375 C-76.86442524 572.27348113 -98.64979971 583.73654745 -120.28515625 595.37890625 C-122.6066429 596.6278429 -124.92820049 597.87664529 -127.25 599.125 C-127.83589905 599.44005493 -128.4217981 599.75510986 -129.02545166 600.07971191 C-139.96008558 605.95417943 -150.97332673 611.66903899 -162.01293945 617.34326172 C-163.2924941 618.00095004 -164.57203535 618.65866444 -165.8515625 619.31640625 C-166.46869614 619.63361633 -167.08582977 619.95082642 -167.72166443 620.27764893 C-173.87682671 623.44488387 -180.0043685 626.66350829 -186.11938477 629.9074707 C-188.0765614 630.94423138 -190.03695011 631.9744076 -192 633 C-192.71631592 633.37600342 -193.43263184 633.75200684 -194.1706543 634.1394043 C-194.8800415 634.50461182 -195.58942871 634.86981934 -196.3203125 635.24609375 C-197.27381592 635.7400061 -197.27381592 635.7400061 -198.24658203 636.24389648 C-200.58756993 637.2533701 -202.491506 637.38007485 -205 637 C-205.33 636.67 -205.66 636.34 -206 636 C-205.79750133 628.52146132 -204.65989771 621.10768795 -203.375 613.75 C-203.20605225 612.75822754 -203.03710449 611.76645508 -202.86303711 610.74462891 C-200.82609666 598.84847211 -198.72016994 586.9638488 -196.6315918 575.07666016 C-194.93895004 565.43318652 -193.27877699 555.78581941 -191.6875 546.125 C-189.47665676 532.70812297 -187.16133151 519.30993823 -184.8427124 505.91131592 C-180.41188379 480.30661605 -176.07730281 454.68759352 -171.83642578 429.05078125 C-170.56476645 421.36599792 -169.28227172 413.68301839 -168 406 C-168.721875 405.443125 -169.44375 404.88625 -170.1875 404.3125 C-172.98762552 402.01017457 -175.4679221 399.59354173 -178 397 C-179.18612239 395.80632705 -180.37348473 394.61388554 -181.56176758 393.42236328 C-182.21627396 392.76462921 -182.87078033 392.10689514 -183.54512024 391.42922974 C-186.51626854 388.44462794 -189.49012771 385.4627333 -192.46411133 382.48095703 C-194.02523677 380.91480041 -195.58546384 379.34774776 -197.14477539 377.77978516 C-199.4131205 375.499215 -201.68476453 373.22197456 -203.95703125 370.9453125 C-204.64376419 370.25341827 -205.33049713 369.56152405 -206.03804016 368.84866333 C-209.90942295 364.97684014 -213.89250421 361.31638964 -218.03672791 357.73965454 C-221.32843158 354.82287736 -224.40379378 351.69935272 -227.4921875 348.5703125 C-228.16420197 347.89451141 -228.83621643 347.21871033 -229.52859497 346.52243042 C-231.64654199 344.39239759 -233.76117003 342.2591181 -235.875 340.125 C-238.68204089 337.29141798 -241.49234838 334.46113492 -244.3046875 331.6328125 C-244.94735565 330.98184601 -245.5900238 330.33087952 -246.25216675 329.66018677 C-247.14417282 328.76322586 -247.14417282 328.76322586 -248.05419922 327.84814453 C-248.57634003 327.32076691 -249.09848083 326.79338928 -249.63644409 326.25003052 C-250.99895469 324.88603887 -250.99895469 324.88603887 -253 324 C-253 323.34 -253 322.68 -253 322 C-253.59455994 321.73108444 -254.18911987 321.46216888 -254.80169678 321.18510437 C-257.00712007 319.99616157 -258.42221096 318.81418854 -260.17285156 317.03833008 C-260.76737122 316.44043167 -261.36189087 315.84253326 -261.97442627 315.22651672 C-262.60677185 314.58071152 -263.23911743 313.93490631 -263.890625 313.26953125 C-264.55406921 312.60088547 -265.21751343 311.93223969 -265.90106201 311.24333191 C-268.02218406 309.10441918 -270.13652168 306.9589638 -272.25 304.8125 C-274.34999707 302.68471241 -276.45149132 300.55846171 -278.55609131 298.43522644 C-279.86352544 297.11572591 -281.16828143 295.79356395 -282.4697876 294.46821594 C-286.21071475 290.68704742 -290.08291521 287.14016167 -294.10882568 283.66508484 C-296.84700064 281.2542581 -299.41224319 278.69441212 -301.96875 276.09375 C-302.49335815 275.56535522 -303.01796631 275.03696045 -303.55847168 274.49255371 C-305.76116115 272.27380416 -307.95770837 270.04901227 -310.15478516 267.82470703 C-311.77812281 266.18307011 -313.40382854 264.54383819 -315.03125 262.90625 C-315.54905029 262.38450195 -316.06685059 261.86275391 -316.6003418 261.32519531 C-320.14187757 257.78422664 -323.80624779 254.45488282 -327.68945312 251.28710938 C-328.12193359 250.86236328 -328.55441406 250.43761719 -329 250 C-329 249.34 -329 248.68 -329 248 C-329.66 248 -330.32 248 -331 248 C-331 247.34 -331 246.68 -331 246 C-331.66 246 -332.32 246 -333 246 C-333 244.35 -333 242.7 -333 241 C-323.19129605 239.27337421 -313.38204826 237.74588611 -303.5 236.5 C-295.9592359 235.54879525 -288.47162732 234.45688625 -280.98526001 233.1476593 C-275.08901685 232.13672307 -269.17705149 231.35128847 -263.2421875 230.60546875 C-253.09063113 229.30441401 -242.97811614 227.81848185 -232.86654663 226.23971558 C-211.58473162 222.92336751 -190.26646717 219.89457285 -168.93334961 216.92895508 C-157.75246501 215.37355407 -146.57412073 213.80676158 -135.40625 212.16015625 C-134.43778641 212.01738754 -133.46932281 211.87461884 -132.47151184 211.7275238 C-127.99025342 211.06548288 -123.50976075 210.39861025 -119.0300293 209.72631836 C-117.471845 209.49461174 -115.91365831 209.26292123 -114.35546875 209.03125 C-113.66042236 208.92543106 -112.96537598 208.81961212 -112.24926758 208.71058655 C-109.10326062 208.24461154 -106.19439844 208 -103 208 C-102.74347656 207.33484375 -102.48695313 206.6696875 -102.22265625 205.984375 C-98.28061959 196.36227912 -93.62033387 187.02278486 -88.6875 177.875 C-85.2232797 171.44016786 -82.00011155 164.91839437 -78.875 158.3125 C-74.46966737 149.00277461 -69.92878264 139.76881533 -65.3125 130.5625 C-64.98662903 129.91228882 -64.66075806 129.26207764 -64.32501221 128.59216309 C-61.44099242 122.83922969 -58.55026437 117.08969501 -55.65234375 111.34375 C-51.38692556 102.87313875 -47.26545458 94.33928344 -43.20605469 85.76782227 C-39.62222391 78.22252565 -35.89613874 70.75166931 -32.14770508 63.28735352 C-30.06243968 59.13146083 -27.9849699 54.97166934 -25.90625 50.8125 C-25.01175146 49.02342114 -24.11721989 47.2343588 -23.22265625 45.4453125 C-22.55000732 44.10001465 -22.55000732 44.10001465 -21.86376953 42.72753906 C-20.5016276 40.00325521 -19.13948568 37.27897135 -17.77734375 34.5546875 C-17.33205322 33.66402588 -16.8867627 32.77336426 -16.42797852 31.85571289 C-15.54591524 30.09174775 -14.66359543 28.32791086 -13.78100586 26.56420898 C-11.72551729 22.45595744 -9.67383412 18.34592921 -7.6328125 14.23046875 C-7.0825238 13.12312378 -7.0825238 13.12312378 -6.52111816 11.9934082 C-5.8409748 10.62428537 -5.16239777 9.25438281 -4.48571777 7.88354492 C-3.11482059 5.12703148 -1.71126364 2.56689546 0 0 Z " fill="#000000" transform="translate(335,14)"/>
<path d="M0 0 C-1.58561638 3.85593074 -4.06509954 6.33216291 -7 9.25 C-7.886875 10.14203125 -8.77375 11.0340625 -9.6875 11.953125 C-12 14 -12 14 -14 14 C-12.41438362 10.14406926 -9.93490046 7.66783709 -7 4.75 C-6.113125 3.85796875 -5.22625 2.9659375 -4.3125 2.046875 C-2 0 -2 0 0 0 Z " fill="#DAD9D5" transform="translate(522,408)"/>
</svg>
