<svg width="39" height="39" viewBox="0 0 39 39" fill="none" xmlns="http://www.w3.org/2000/svg">
<path d="M23.0522 4.47363V10.3171C23.0522 11.1085 23.3675 11.869 23.9297 12.4296C24.4934 12.9909 25.2566 13.3058 26.052 13.3055H32.7551" stroke="#E9BF80" stroke-width="2" stroke-linecap="round" stroke-linejoin="round"/>
<path d="M32.9062 13.9227V27.8457C32.874 28.7564 32.6618 29.6517 32.282 30.48C31.9021 31.3083 31.3621 32.0533 30.693 32.6719C30.0234 33.2935 29.2378 33.777 28.3813 34.0948C27.5248 34.4127 26.614 34.5587 25.701 34.5244H13.3672C12.4487 34.5664 11.5309 34.4267 10.6665 34.1132C9.80202 33.7998 9.00794 33.3189 8.32975 32.6979C7.65419 32.0776 7.10863 31.3292 6.72478 30.4962C6.34093 29.6632 6.12643 28.7623 6.09375 27.8457V11.1504C6.12601 10.2397 6.33819 9.34443 6.71804 8.51611C7.0979 7.68779 7.63792 6.94284 8.307 6.32418C8.97663 5.70265 9.76216 5.21915 10.6187 4.90129C11.4752 4.58343 12.386 4.43745 13.299 4.47168H22.5842C24.0017 4.46667 25.3699 4.99114 26.4209 5.94231L31.2309 10.3656C31.7441 10.8077 32.1586 11.3529 32.4472 11.9658C32.7359 12.5786 32.8923 13.2454 32.9062 13.9227Z" stroke="#E9BF80" stroke-width="2" stroke-linecap="round" stroke-linejoin="round"/>
<path d="M19.5 17.0605V28.0683" stroke="#E9BF80" stroke-width="2" stroke-miterlimit="10" stroke-linecap="round"/>
<path d="M24.5473 21.6934L20.2166 17.3628C20.1229 17.268 20.0113 17.1927 19.8883 17.1413C19.7653 17.0899 19.6333 17.0635 19.5 17.0635C19.3667 17.0635 19.2347 17.0899 19.1117 17.1413C18.9887 17.1927 18.8771 17.268 18.7834 17.3628L14.4528 21.6951" stroke="#E9BF80" stroke-width="2" stroke-linecap="round" stroke-linejoin="round"/>
</svg>
