<?xml version="1.0" encoding="UTF-8"?>
<svg version="1.1" xmlns="http://www.w3.org/2000/svg" width="669" height="676">
<path d="M0 0 C220.77 0 441.54 0 669 0 C669 223.08 669 446.16 669 676 C448.23 676 227.46 676 0 676 C0 452.92 0 229.84 0 0 Z " fill="#000000" transform="translate(0,0)"/>
<path d="M0 0 C107.58 0 215.16 0 326 0 C326 0.33 326 0.66 326 1 C325.42258057 1.04487549 324.84516113 1.08975098 324.25024414 1.13598633 C299.13864309 3.13307612 275.94575538 8.25995786 252 16 C251.04738281 16.28875 250.09476563 16.5775 249.11328125 16.875 C245.00908168 17.99790488 245.00908168 17.99790488 241.640625 20.4296875 C239.37959002 22.59382098 236.97157909 23.37808075 234.0625 24.5 C230.21568817 25.98724323 227.26639355 27.51886066 224 30 C222.34255958 30.68928475 220.67540664 31.35561283 219 32 C211.5412261 35.9966809 204.75086609 40.92552347 198 46 C196.45119141 47.1446875 196.45119141 47.1446875 194.87109375 48.3125 C186.75121782 54.37350403 179.29640291 60.97697379 172 68 C171.42072754 68.55204102 170.84145508 69.10408203 170.24462891 69.67285156 C159.26974276 80.1710901 149.9846187 91.4341743 141.41796875 103.96875 C140 106 140 106 137.875 108.5625 C133.78501236 113.87948393 130.90091387 120.05474473 127.9921875 126.078125 C127 128 127 128 125.5390625 130.28515625 C123.10433506 134.57991659 121.80964582 139.23970591 120.28125 143.91796875 C119 147 119 147 116 149 C115.13887096 150.72204836 115.13887096 150.72204836 114.60546875 152.76171875 C114.37512939 153.53878174 114.14479004 154.31584473 113.9074707 155.11645508 C113.66988037 155.9648999 113.43229004 156.81334473 113.1875 157.6875 C112.80501099 159.01914185 112.80501099 159.01914185 112.41479492 160.37768555 C111.87413082 162.27704333 111.33990426 164.17824325 110.81152344 166.08105469 C110.27856784 167.99802735 109.73778957 169.91284569 109.18847656 171.82519531 C105.08458753 186.12662679 102.53731233 200.20872797 101 215 C100.86851563 216.10085937 100.73703125 217.20171875 100.6015625 218.3359375 C95.69843765 264.58433137 108.10441889 312.29034923 125 355 C125.42925781 356.15242188 125.85851562 357.30484375 126.30078125 358.4921875 C128.52436958 364.45388252 130.96137039 370.15623837 133.8828125 375.80859375 C135.41224427 378.80863299 136.69351811 381.89710551 138 385 C142.19300554 394.56583759 146.83411926 403.90889243 151.5 413.25 C152.09459518 414.44119949 152.09459518 414.44119949 152.70120239 415.65646362 C160.33334768 430.91519518 168.54297088 445.74330566 177.20703125 460.44140625 C177.71951416 461.31531006 178.23199707 462.18921387 178.76000977 463.08959961 C179.72038119 464.7237889 180.68780303 466.35386531 181.66381836 467.97875977 C183.81836313 471.63059279 185.55753394 474.69446484 186 479 C186.99 479.33 187.98 479.66 189 480 C190.38671875 481.70703125 190.38671875 481.70703125 191.6875 483.8125 C192.12449219 484.49957031 192.56148437 485.18664062 193.01171875 485.89453125 C194 488 194 488 194 492 C194.99 492.33 195.98 492.66 197 493 C198.68744258 495.45151186 200.23546662 497.88276829 201.75 500.4375 C205.20787524 506.152723 208.7777961 511.65645016 212.8203125 516.984375 C214 519 214 519 214 523 C214.90492188 523.37318359 214.90492188 523.37318359 215.828125 523.75390625 C218.34076601 525.19551144 219.26420364 526.47493011 220.75 528.9375 C221.17796875 529.62714844 221.6059375 530.31679688 222.046875 531.02734375 C223 533 223 533 223 536 C223.99 536.33 224.98 536.66 226 537 C228.04296875 539.6171875 228.04296875 539.6171875 230.1875 542.875 C230.90292969 543.94492187 231.61835938 545.01484375 232.35546875 546.1171875 C234 549 234 549 234 552 C234.59296875 552.23847656 235.1859375 552.47695313 235.796875 552.72265625 C238.46586398 554.27010199 239.57526129 555.86195487 241.25 558.4375 C241.77078125 559.21996094 242.2915625 560.00242187 242.828125 560.80859375 C244 563 244 563 244 566 C244.99 566.33 245.98 566.66 247 567 C247 567.99 247 568.98 247 570 C247.99 570.33 248.98 570.66 250 571 C252 574 252 574 252 577 C252.99 577.33 253.98 577.66 255 578 C256.57059369 579.88072904 258.06109302 581.82920654 259.5 583.8125 C260.2734375 584.87082031 261.046875 585.92914062 261.84375 587.01953125 C262.5553125 588.00308594 263.266875 588.98664062 264 590 C264.5878125 590.72574219 265.175625 591.45148437 265.78125 592.19921875 C267 594 267 594 267 597 C267.99 597.33 268.98 597.66 270 598 C270 598.99 270 599.98 270 601 C270.598125 601.2475 271.19625 601.495 271.8125 601.75 C274.33586869 603.19192497 275.50030076 604.52549626 277 607 C277 607.99 277 608.98 277 610 C277.99 610.33 278.98 610.66 280 611 C280 611.99 280 612.98 280 614 C280.81404297 614.28230469 280.81404297 614.28230469 281.64453125 614.5703125 C285.12891125 616.68520982 287.22450299 619.67147277 289.6875 622.875 C290.18572266 623.50019531 290.68394531 624.12539063 291.19726562 624.76953125 C294.87272133 629.48728037 294.87272133 629.48728037 295.53442383 632.15283203 C295.68806396 632.76239746 295.8417041 633.37196289 296 634 C297.32407669 634.68486725 298.65909241 635.34870203 300 636 C304 640.33333333 304 640.33333333 304 644 C304.639375 644.2475 305.27875 644.495 305.9375 644.75 C308.544301 646.32987939 308.29195078 647.16780311 309 650 C309.66 650.33 310.32 650.66 311 651 C311.66 651.33 312.32 651.66 313 652 C313.33333333 653.33333333 313.66666667 654.66666667 314 656 C314.90649292 656.45258179 314.90649292 656.45258179 315.83129883 656.91430664 C318.2292733 658.11477861 319.4543586 659.35122995 321.19921875 661.37109375 C321.76833984 662.02787109 322.33746094 662.68464844 322.92382812 663.36132812 C323.50583984 664.04646484 324.08785156 664.73160156 324.6875 665.4375 C325.57791992 666.4594043 325.57791992 666.4594043 326.48632812 667.50195312 C330.86749806 672.60249418 330.86749806 672.60249418 332 676 C222.44 676 112.88 676 0 676 C0 452.92 0 229.84 0 0 Z " fill="#FEFEFE" transform="translate(0,0)"/>
<path d="M0 0 C105.6 0 211.2 0 320 0 C320 223.08 320 446.16 320 676 C212.42 676 104.84 676 -6 676 C-2.40839211 671.21118949 0.79470548 666.97181488 4.8125 662.6875 C9.2899617 657.82416492 13.50113057 652.80778127 17.64990234 647.66357422 C19.82109108 644.98826137 22.01825571 642.33446951 24.21240234 639.67797852 C32.41044792 629.75009989 40.46709397 619.7670599 48.15893555 609.44067383 C52.01375864 604.27795363 55.96030871 599.19378579 59.9375 594.125 C66.30820571 585.98421633 72.38720783 577.65910508 78.39111328 569.24560547 C79.999173 567.00115429 81.62017831 564.76669955 83.24609375 562.53515625 C90.04030105 553.20292398 96.64400307 543.75944814 103.125 534.20703125 C104.94233073 531.53010309 106.7918937 528.88373836 108.6875 526.26171875 C110.60457516 523.55773605 112.33267743 520.85959792 114 518 C120.26924084 507.9276178 120.26924084 507.9276178 123.6875 503.25 C125.59697473 500.56641389 127.24830093 497.87957454 128.84375 495.00390625 C130.2798601 492.51497218 131.82371341 490.10628238 133.375 487.6875 C137.85253887 480.68955546 142.14387463 473.63992958 146.0625 466.3125 C147.81505021 463.05183422 149.62466374 459.98627076 151.8125 457 C154.11483732 454.16119366 154.11483732 454.16119366 155 451 C155.66 451 156.32 451 157 451 C157.12375 450.2575 157.2475 449.515 157.375 448.75 C157.95486701 446.19858515 158.73708739 444.2732427 160 442 C160.66 442 161.32 442 162 442 C162.28875 440.9275 162.5775 439.855 162.875 438.75 C163.72820109 435.90599636 164.5636503 433.56491017 166 431 C166.66 431 167.32 431 168 431 C168.19335938 430.36191406 168.38671875 429.72382813 168.5859375 429.06640625 C168.84632813 428.24011719 169.10671875 427.41382813 169.375 426.5625 C169.63023437 425.73878906 169.88546875 424.91507812 170.1484375 424.06640625 C171 422 171 422 173 421 C173.7013284 418.67684969 174.36485174 416.34210921 175 414 C176.6 410.2 176.6 410.2 179 409 C179.33 407.845 179.66 406.69 180 405.5 C180.33 404.345 180.66 403.19 181 402 C181.66 401.67 182.32 401.34 183 401 C183.99503094 398.96397386 183.99503094 398.96397386 184.875 396.5 C187.42932977 389.86439794 190.24021805 383.44518886 193.5 377.125 C197.53657203 369.11376655 200.19269563 360.8232758 202.2890625 352.1171875 C203 350 203 350 205 349 C205.78198205 347.06500122 205.78198205 347.06500122 206.38671875 344.69140625 C207.47518405 340.84322077 208.6112111 337.02332013 209.83203125 333.21484375 C214.56278246 318.28801619 218.85359523 303.34641184 222 288 C222.21172852 286.97406738 222.42345703 285.94813477 222.64160156 284.89111328 C230.44351563 245.17059198 229.87234853 195.37601617 213 158 C212.31406599 156.15507404 211.62842616 154.30997902 210.9597168 152.45874023 C197.13047112 114.29154448 171.04602901 78.94417306 139 54 C138.20843506 53.37714111 138.20843506 53.37714111 137.40087891 52.74169922 C131.2814844 47.92705667 125.14620149 43.25366843 118.51171875 39.15625 C117.76341797 38.58390625 117.76341797 38.58390625 117 38 C117 37.34 117 36.68 117 36 C115.8553125 35.814375 115.8553125 35.814375 114.6875 35.625 C112 35 112 35 109 33 C109 32.34 109 31.68 109 31 C108.19304687 30.93167969 107.38609375 30.86335938 106.5546875 30.79296875 C101.89467018 29.75342643 98.26501656 27.63262291 94.125 25.3125 C85.62100896 20.70797569 77.17926722 17.0135466 68 14 C67.26265625 13.7529834 66.5253125 13.5059668 65.765625 13.25146484 C44.31463417 6.14762371 22.52791245 2.36970221 0 1 C0 0.67 0 0.34 0 0 Z " fill="#FEFEFE" transform="translate(349,0)"/>
<path d="M0 0 C1.45626021 1.24929172 2.89586014 2.51845397 4.3125 3.8125 C4.9415625 4.37324219 5.570625 4.93398437 6.21875 5.51171875 C20.43416997 18.88543622 28.80253838 37.97250795 29.69140625 57.3046875 C30.01392132 69.70552162 29.7270665 81.1003848 25.3125 92.8125 C24.95414063 93.81796875 24.59578125 94.8234375 24.2265625 95.859375 C21.79581448 102.32918552 21.79581448 102.32918552 19.3125 104.8125 C19.01988281 105.57691406 18.72726562 106.34132813 18.42578125 107.12890625 C17.17106439 110.15343427 15.58237107 112.22965413 13.5 114.75 C12.83355469 115.56339844 12.16710937 116.37679687 11.48046875 117.21484375 C10.76503906 118.07207031 10.04960937 118.92929687 9.3125 119.8125 C8.53519531 120.79992187 7.75789062 121.78734375 6.95703125 122.8046875 C4.26120961 126.03439667 1.17683568 128.49821442 -2.1875 131 C-2.74308594 131.42474609 -3.29867187 131.84949219 -3.87109375 132.28710938 C-22.40203689 146.30522283 -44.95865568 150.69718509 -67.6875 147.8125 C-79.68003967 145.89316418 -92.32634066 141.87349832 -101.6875 133.8125 C-101.6875 133.1525 -101.6875 132.4925 -101.6875 131.8125 C-102.56148438 131.6578125 -102.56148438 131.6578125 -103.453125 131.5 C-107.68611995 130.19754002 -110.55243716 126.8269835 -113.6875 123.8125 C-114.32945312 123.20792969 -114.97140625 122.60335937 -115.6328125 121.98046875 C-131.37799051 105.82094395 -138.26698098 82.89463552 -137.984375 60.7890625 C-137.67978887 52.92265955 -135.68274854 45.39284182 -133.6875 37.8125 C-133.3524509 36.47959678 -133.0186672 35.146373 -132.6875 33.8125 C-132.0275 33.8125 -131.3675 33.8125 -130.6875 33.8125 C-130.58695312 33.25304687 -130.48640625 32.69359375 -130.3828125 32.1171875 C-126.62132952 16.09223944 -112.04874962 1.53821404 -98.6875 -7.1875 C-97.03096808 -7.87896528 -95.36487025 -8.54824163 -93.6875 -9.1875 C-92.841875 -9.72375 -91.99625 -10.26 -91.125 -10.8125 C-88.6875 -12.1875 -88.6875 -12.1875 -84.6875 -12.1875 C-84.6875 -12.8475 -84.6875 -13.5075 -84.6875 -14.1875 C-82.33466625 -14.83854151 -79.98041551 -15.48342122 -77.625 -16.125 C-76.96822266 -16.30740234 -76.31144531 -16.48980469 -75.63476562 -16.67773438 C-48.57082698 -24.01032859 -21.84641421 -16.91123028 0 0 Z " fill="#FDFDFD" transform="translate(391.6875,174.1875)"/>
<path d="M0 0 C100.32 0 200.64 0 304 0 C304 0.66 304 1.32 304 2 C302.10507994 2.33848652 300.20901534 2.67056911 298.3125 3 C297.25675781 3.185625 296.20101563 3.37125 295.11328125 3.5625 C292.35095938 3.95068074 289.78257957 4.08259976 287 4 C288.32 3.67 289.64 3.34 291 3 C291 2.34 291 1.68 291 1 C194.97 1 98.94 1 0 1 C0 0.67 0 0.34 0 0 Z " fill="#E1E1E1" transform="translate(0,1)"/>
<path d="M0 0 C98.01 0 196.02 0 297 0 C297 0.33 297 0.66 297 1 C296.39944434 1.00173625 295.79888867 1.0034725 295.18013436 1.00526136 C259.62383781 1.1081833 224.06756065 1.21627271 188.51130057 1.33111694 C184.24654751 1.3448873 179.9817943 1.35861428 175.71704102 1.37231445 C174.44343259 1.37640691 174.44343259 1.37640691 173.1440947 1.38058204 C159.37754302 1.42471421 145.61098308 1.4653281 131.84441692 1.50465261 C117.72941451 1.54505034 103.61442749 1.58920379 89.49944776 1.63687855 C80.78257519 1.66620124 72.06570384 1.69255842 63.34881126 1.71517897 C57.37962114 1.73094918 51.41044988 1.75035169 45.44128067 1.77266841 C41.99212886 1.78545456 38.54299165 1.79658387 35.09382248 1.80341911 C31.36317983 1.81164293 27.63260954 1.82590882 23.9019928 1.84178162 C22.79987632 1.84275972 21.69775985 1.84373783 20.56224591 1.84474558 C19.07533282 1.85295724 19.07533282 1.85295724 17.55838108 1.8613348 C16.26486378 1.86532186 16.26486378 1.86532186 14.94521481 1.86938947 C12.99458922 1.78602861 12.99458922 1.78602861 12 3 C9.97591245 2.90997602 7.95455713 2.75358962 5.9375 2.5625 C4.28041016 2.40974609 4.28041016 2.40974609 2.58984375 2.25390625 C1.30787109 2.12822266 1.30787109 2.12822266 0 2 C0 1.34 0 0.68 0 0 Z " fill="#E3E3E3" transform="translate(372,1)"/>
<path d="M0 0 C-1.58561638 3.85593074 -4.06509954 6.33216291 -7 9.25 C-7.886875 10.14203125 -8.77375 11.0340625 -9.6875 11.953125 C-12 14 -12 14 -14 14 C-12.41438362 10.14406926 -9.93490046 7.66783709 -7 4.75 C-6.113125 3.85796875 -5.22625 2.9659375 -4.3125 2.046875 C-2 0 -2 0 0 0 Z " fill="#D3D3D1" transform="translate(286,174)"/>
<path d="M0 0 C5.61 0 11.22 0 17 0 C15.02 0.99 15.02 0.99 13 2 C12.67 2.33 12.34 2.66 12 3 C9.97591245 2.90997602 7.95455713 2.75358962 5.9375 2.5625 C4.28041016 2.40974609 4.28041016 2.40974609 2.58984375 2.25390625 C1.30787109 2.12822266 1.30787109 2.12822266 0 2 C0 1.34 0 0.68 0 0 Z " fill="#DCDBDA" transform="translate(372,1)"/>
</svg>
