<?xml version="1.0" encoding="UTF-8"?>
<svg version="1.1" xmlns="http://www.w3.org/2000/svg" width="681" height="669"  {{ $attributes }}>
<path d="M0 0 C224.73 0 449.46 0 681 0 C681 220.77 681 441.54 681 669 C456.27 669 231.54 669 0 669 C0 448.23 0 227.46 0 0 Z " fill="#FEFEFE" transform="translate(0,0)"/>
<path d="M0 0 C0.99 0 1.98 0 3 0 C6.94142826 5.0345177 9.58495036 11.05144918 12.06640625 16.91015625 C12.95692546 18.90357792 13.95356272 20.74608363 15.0625 22.625 C17.00124765 26.00217332 18.47569852 29.42120522 20 33 C20.7425 34.2375 20.7425 34.2375 21.5 35.5 C22.96529877 37.94216461 24.03676715 40.42386491 25.14331055 43.04199219 C26.60481913 46.38234523 28.26035756 49.62258047 29.90625 52.875 C30.2722229 53.60315918 30.6381958 54.33131836 31.01525879 55.08154297 C32.17488758 57.38868373 33.33710601 59.69450349 34.5 62 C36.03362056 65.04048081 37.56449852 68.08231978 39.09375 71.125 C39.44070923 71.81062012 39.78766846 72.49624023 40.1451416 73.20263672 C41.74033453 76.37707648 43.26355331 79.55496078 44.64648438 82.828125 C45.8929946 85.74923986 47.35981501 88.29012915 49 91 C49.66666667 92.66666667 50.33333333 94.33333333 51 96 C51.474375 96.78375 51.94875 97.5675 52.4375 98.375 C53.92830324 100.87954944 55.03675093 103.41372548 56.1690979 106.09329224 C57.51009985 109.17054866 59.02679627 112.15893312 60.54296875 115.15234375 C60.88563278 115.83336655 61.22829681 116.51438934 61.5813446 117.21604919 C62.32588925 118.69575664 63.07124388 120.17505674 63.81732178 121.6539917 C67.2184289 128.40056519 70.59850428 135.15775756 73.98364258 141.91235352 C74.87780248 143.69558072 75.77267213 145.4784522 76.66821289 147.26098633 C77.98513496 149.88267865 79.29945055 152.50566364 80.61328125 155.12890625 C81.01017654 155.91753555 81.40707184 156.70616486 81.81599426 157.51869202 C83.52931108 160.94497997 85.18857836 164.36910024 86.68041992 167.89819336 C87.9011741 170.96538848 87.9011741 170.96538848 89.5 173.5 C91.32756882 176.54594803 92.60163026 179.73713728 94 183 C94.495 183.825 94.99 184.65 95.5 185.5 C96.9598678 187.933113 98.02076521 190.40298031 99.12158203 193.01171875 C100.98555971 197.23079442 103.17226967 201.30132672 105.30273438 205.390625 C108 210.67506378 108 210.67506378 108 214 C109.16172729 213.97957138 110.32345459 213.95914276 111.52038574 213.93809509 C115.64276935 213.94097476 119.59157318 214.38464289 123.67382812 214.99047852 C124.76124802 215.14941463 124.76124802 215.14941463 125.87063599 215.31156158 C128.25834338 215.66191611 130.64475697 216.02038123 133.03125 216.37890625 C134.72563247 216.62912836 136.42009228 216.87882726 138.11462402 217.1280365 C142.63913959 217.79481775 147.16260466 218.46848744 151.68591309 219.1434021 C156.41236789 219.84730619 161.13980754 220.54452858 165.8671875 221.2421875 C173.30118941 222.33987 180.73474701 223.44050452 188.16796875 224.54345703 C198.57597776 226.08735713 208.98687375 227.6109091 219.39962769 229.12246704 C223.86168355 229.77028703 228.32345289 230.42006961 232.78515625 231.0703125 C233.73717422 231.20905289 234.6891922 231.34779327 235.6700592 231.49073792 C245.11484043 232.86851981 254.55823782 234.25570031 264.00168991 235.64255524 C269.64400876 236.471006 275.28644884 237.29863082 280.92888451 238.12628555 C286.54682553 238.95046169 292.16455969 239.77603055 297.78214931 240.60259819 C301.30808796 241.12106436 304.83421855 241.63821597 308.36039925 242.15503311 C310.01464979 242.397768 311.6688204 242.64104843 313.32290459 242.8849144 C323.33235974 244.38153428 323.33235974 244.38153428 333.37915039 245.59228516 C339.35010714 246.26462672 339.35010714 246.26462672 342 249 C342.95881539 252.2392412 342.861094 254.74553295 342 258 C340.41894531 259.76660156 340.41894531 259.76660156 338.390625 261.390625 C337.29778198 262.29312988 337.29778198 262.29312988 336.18286133 263.21386719 C335.46251709 263.80329102 334.74217285 264.39271484 334 265 C321.09544391 276.49230508 309.02076433 288.9026948 296.86499023 301.171875 C295.88139526 302.16186745 295.88139526 302.16186745 294.87792969 303.17185974 C293.64918855 304.40876465 292.42252448 305.64773833 291.19848633 306.88929749 C287.59386196 310.51467976 283.8477392 313.90295288 279.98106384 317.24601746 C276.80283883 320.05993545 273.81976974 323.05684037 270.83203125 326.0703125 C270.18932785 326.71443085 269.54662445 327.35854919 268.88444519 328.02218628 C266.85807085 330.05409005 264.83521951 332.08945857 262.8125 334.125 C261.44619838 335.49632777 260.0796637 336.86742337 258.71289062 338.23828125 C256.20534431 340.75394013 253.69913947 343.27091824 251.19458008 345.78955078 C250.6483197 346.33813751 250.10205933 346.88672424 249.53924561 347.45193481 C248.14103296 348.85815895 246.74715032 350.26868513 245.35375977 351.6796875 C243.15376431 353.84842071 240.89463231 355.89584463 238.5703125 357.9296875 C231.72964067 364.0505554 225.32723552 370.60112983 218.875 377.125 C204.62059147 391.53675023 204.62059147 391.53675023 197 398 C193.41218377 401.09882368 189.91164181 404.27454947 186.4375 407.5 C185.51130859 408.29664063 184.58511719 409.09328125 183.63085938 409.9140625 C179.83133547 413.50797836 177.2541711 416.11838112 176.53833008 421.41772461 C176.74643849 425.34897806 177.28936082 429.1366087 178 433 C178.19215088 434.26021973 178.38430176 435.52043945 178.58227539 436.81884766 C179.13447674 440.29691775 179.74038104 443.75657056 180.38006592 447.21911621 C181.17644351 451.53472965 181.94262015 455.85579295 182.71484375 460.17578125 C182.88969299 461.14953705 183.06454224 462.12329285 183.24468994 463.1265564 C185.60442292 476.30313634 187.84339016 489.50068004 190.09692383 502.69573975 C191.39645794 510.30414831 192.70042571 517.91179801 194.00390625 525.51953125 C194.13197285 526.26712204 194.26003944 527.01471283 194.39198685 527.78495789 C196.85636881 542.17071181 199.3267474 556.55542096 201.8125 570.9375 C201.99352264 571.9849942 202.17454529 573.0324884 202.36105347 574.11172485 C205.10382121 589.96761119 207.90964766 605.81160163 210.79418945 621.64233398 C215.32979272 646.59028553 215.32979272 646.59028553 215 655 C210.01400883 654.46199791 206.48164295 652.88255471 202.125 650.4375 C200.97257813 649.79683594 199.82015625 649.15617188 198.6328125 648.49609375 C197.76398437 648.00238281 196.89515625 647.50867188 196 647 C196 646.34 196 645.68 196 645 C195.236875 644.855625 194.47375 644.71125 193.6875 644.5625 C191 644 191 644 188 643 C188 642.34 188 641.68 188 641 C187.195625 640.938125 186.39125 640.87625 185.5625 640.8125 C180.8364549 639.73463007 177.12486573 637.48408581 173 635 C173 634.34 173 633.68 173 633 C172.17242187 632.91878906 171.34484375 632.83757813 170.4921875 632.75390625 C166.20917874 631.82927461 162.91957543 630.06643331 159.125 627.9375 C158.43664062 627.56044922 157.74828125 627.18339844 157.0390625 626.79492188 C155.3550787 625.87106965 153.67692533 624.93660333 152 624 C152 623.34 152 622.68 152 622 C151.12601562 621.89558594 150.25203125 621.79117188 149.3515625 621.68359375 C145.84404938 620.96819189 143.4638741 619.8418655 140.375 618.0625 C137.27956784 616.29801696 134.20541798 614.55756226 131 613 C131 612.34 131 611.68 131 611 C130.195625 610.938125 129.39125 610.87625 128.5625 610.8125 C123.8364549 609.73463007 120.12486573 607.48408581 116 605 C116 604.34 116 603.68 116 603 C115.19304687 602.92910156 114.38609375 602.85820313 113.5546875 602.78515625 C108.92447928 601.76243993 105.25004381 599.72025729 101.125 597.4375 C100.34125 597.01275391 99.5575 596.58800781 98.75 596.15039062 C96.82899613 595.10789462 94.9126751 594.05767555 93 593 C93 592.34 93 591.68 93 591 C92.21625 590.95875 91.4325 590.9175 90.625 590.875 C86.21761514 589.81114848 83.06407269 587.79977609 79.26953125 585.375 C76.96879465 583.86675485 76.96879465 583.86675485 74 583 C74 582.34 74 581.68 74 581 C73.15179688 580.90847656 72.30359375 580.81695313 71.4296875 580.72265625 C67.49362887 579.89330449 64.6266737 578.40272503 61.125 576.4375 C59.97257812 575.79683594 58.82015625 575.15617188 57.6328125 574.49609375 C56.76398438 574.00238281 55.89515625 573.50867188 55 573 C55 572.34 55 571.68 55 571 C54.15179688 570.90847656 53.30359375 570.81695313 52.4296875 570.72265625 C48.49362887 569.89330449 45.6266737 568.40272503 42.125 566.4375 C40.97257812 565.79683594 39.82015625 565.15617188 38.6328125 564.49609375 C37.76398438 564.00238281 36.89515625 563.50867188 36 563 C36 562.34 36 561.68 36 561 C35.21625 560.95875 34.4325 560.9175 33.625 560.875 C29.27986764 559.82617495 26.23595117 557.86351087 22.48046875 555.5 C19.41116164 553.64391507 16.33492292 552.30496984 13 551 C13 550.34 13 549.68 13 549 C11.00133314 548.65876419 9.00097458 548.3274322 7 548 C5.865625 547.7525 4.73125 547.505 3.5625 547.25 C-2.95556502 546.79259193 -7.55127814 550.27487464 -12.8203125 553.66796875 C-17.50154451 556.52872165 -22.46019414 559.01336829 -27.57421875 561 C-29.81979465 561.92571245 -31.62063142 562.95712301 -33.625 564.3125 C-36.81382581 566.36417849 -40.02834937 567.97574342 -43.5 569.5 C-47.656477 571.32563493 -51.38012341 573.40121898 -55.171875 575.8828125 C-57.96149874 577.58758256 -60.9985431 578.71366133 -64 580 C-65.28411759 580.76993214 -66.55444109 581.56318644 -67.8125 582.375 C-73.10460843 585.78295309 -78.70055507 588.71632538 -84.5703125 591 C-86.82529308 591.9280949 -88.66456561 592.96533979 -90.6875 594.3125 C-96.02475975 597.72915492 -101.64884669 600.69535253 -107.55859375 602.99609375 C-109.8634085 603.94383357 -111.79185345 605.01792942 -113.875 606.375 C-123.14989071 612.29625791 -123.14989071 612.29625791 -127.26953125 613.86328125 C-130.68832326 615.28655518 -133.81735343 617.12305459 -137 619 C-140.91362836 621.30803724 -144.76560629 623.33840247 -149 625 C-151.1790125 626.1434422 -153.3450814 627.31177385 -155.5 628.5 C-159.28424686 630.58664079 -162.99087674 632.40308872 -167 634 C-168.24955901 634.73731743 -169.47989719 635.50830464 -170.6875 636.3125 C-176.02475975 639.72915492 -181.64884669 642.69535253 -187.55859375 644.99609375 C-189.8634085 645.94383357 -191.79185345 647.01792942 -193.875 648.375 C-194.56078125 648.808125 -195.2465625 649.24125 -195.953125 649.6875 C-197.26402312 650.52807589 -198.56701752 651.38118825 -199.859375 652.25 C-202.95003287 654.21926873 -204.66893225 655.01839265 -208.375 654.8125 C-211 654 -211 654 -212 653 C-212.25731278 647.68860339 -211.60242981 642.81174362 -210.64453125 637.62109375 C-210.5010173 636.81430679 -210.35750336 636.00751984 -210.2096405 635.17628479 C-209.74958052 632.59563894 -209.28148221 630.01653785 -208.8125 627.4375 C-208.21213493 624.10334739 -207.61522078 620.76858466 -207.01953125 617.43359375 C-206.86235626 616.5551178 -206.70518127 615.67664185 -206.54324341 614.77154541 C-204.24756943 601.867262 -202.13876756 588.93099659 -200 576 C-198.54344868 567.21308314 -197.084649 558.42653949 -195.625 549.64013672 C-195.20775487 547.1265608 -194.79108979 544.61288852 -194.375 542.09912109 C-191.93578876 527.36666633 -189.42384896 512.65134584 -186.77735901 497.95465088 C-184.90329455 487.5264376 -183.15366445 477.0801608 -181.4375 466.625 C-177.37841929 441.96978122 -177.37841929 441.96978122 -175.06616211 430.38916016 C-174.12111121 425.4786947 -173.4236404 420.99341637 -174 416 C-175.80817251 413.56198074 -177.27906809 411.89950114 -179.5 409.9375 C-180.0053125 409.45990234 -180.510625 408.98230469 -181.03125 408.49023438 C-183.19282011 406.46646436 -185.3994439 404.50592622 -187.6640625 402.59814453 C-195.93504118 395.57810662 -203.3930716 387.66389284 -211.01855469 379.9609375 C-212.98941341 377.97183897 -214.96339005 375.98587103 -216.9375 374 C-217.52732666 373.401875 -218.11715332 372.80375 -218.72485352 372.1875 C-221.70404893 369.19116596 -224.73868401 366.32156975 -227.9387207 363.5612793 C-232.17167259 359.9020799 -236.11180253 355.99820087 -240.04296875 352.01953125 C-240.77445633 351.28425705 -241.50594391 350.54898285 -242.25959778 349.79142761 C-244.57136789 347.46755617 -246.87983945 345.14045192 -249.1875 342.8125 C-252.24057461 339.73276376 -255.29699262 336.65640227 -258.35546875 333.58203125 C-259.3946772 332.53037529 -259.3946772 332.53037529 -260.45487976 331.45747375 C-263.83014497 328.06517395 -267.23626806 324.96399302 -271 322 C-272.68841481 320.35536904 -274.3533212 318.68641765 -276 317 C-277.01818667 315.97912594 -278.03780031 314.95967375 -279.05859375 313.94140625 C-286.35286458 306.64713542 -293.64713542 299.35286458 -300.94140625 292.05859375 C-301.45944824 291.54200195 -301.97749023 291.02541016 -302.51123047 290.49316406 C-303.92805641 289.07215596 -305.32970046 287.63605833 -306.73046875 286.19921875 C-308.92885903 283.897479 -308.92885903 283.897479 -311.75 282.375 C-314 281 -314 281 -315 278 C-316.35555768 276.62596838 -316.35555768 276.62596838 -318.125 275.25 C-322.51226899 271.47341314 -326.79628865 267.60413086 -331 263.625 C-331.68336426 263.01301758 -332.36672852 262.40103516 -333.07080078 261.77050781 C-337.78423306 257.23482836 -337.78423306 257.23482836 -338.43359375 253.51855469 C-338.43707047 251.29780174 -338.25977558 249.20135915 -338 247 C-328.21593385 245.31301786 -318.40207851 243.85594426 -308.578125 242.42578125 C-306.88785813 242.17880478 -305.19760682 241.93172178 -303.50737 241.68453979 C-299.01599108 241.02802122 -294.5243989 240.37297318 -290.03275681 239.7182579 C-285.35839161 239.03668177 -280.68421098 238.35384217 -276.01000977 237.67114258 C-268.64430917 236.59548164 -261.27849452 235.52060514 -253.91259766 234.44628906 C-245.82029919 233.26597998 -237.72838521 232.08307229 -229.63671875 230.8984375 C-214.21041665 228.64128841 -198.78348261 226.39045513 -183.34765625 224.19921875 C-181.74898964 223.97221031 -181.74898964 223.97221031 -180.11802673 223.74061584 C-179.05435379 223.58958908 -177.99068085 223.43856232 -176.89477539 223.28295898 C-175.83420929 223.1323703 -174.77364319 222.98178162 -173.68093872 222.82662964 C-171.58075477 222.52844555 -169.48055569 222.23036805 -167.38034058 221.93240356 C-153.12569721 219.90768563 -138.88877841 217.79680316 -124.67382812 215.50927734 C-123.51302734 215.32316895 -122.35222656 215.13706055 -121.15625 214.9453125 C-120.09237061 214.76589111 -119.02849121 214.58646973 -117.93237305 214.40161133 C-115 214 -115 214 -112.35864258 213.97924805 C-109.97099233 213.95686921 -108.2237602 213.87505576 -106 213 C-103.52214066 210.16528557 -102.15389251 207.00544174 -100.6875 203.5625 C-100.28466797 202.69689453 -99.88183594 201.83128906 -99.46679688 200.93945312 C-97.0655342 195.71271768 -94.93727094 190.39147184 -92.90551758 185.01147461 C-92 183 -92 183 -90 181 C-89.37124081 179.53956387 -88.79491838 178.05624555 -88.25 176.5625 C-86.35043887 171.63506699 -83.98031132 167.12609007 -81.3671875 162.54296875 C-79.98227784 160.0882852 -79.98227784 160.0882852 -79.10546875 157.71875 C-77.49839968 153.76638224 -75.44923749 150.07158392 -73.4375 146.3125 C-69.91892582 139.67576113 -66.44199373 133.02125843 -63.0625 126.3125 C-62.69761475 125.59553955 -62.33272949 124.8785791 -61.95678711 124.13989258 C-60.22376053 120.6807117 -58.67088794 117.24027472 -57.33984375 113.60546875 C-56.14269943 110.38399875 -55.00667451 108.67556602 -53 106 C-52.49264724 104.71914222 -52.01652399 103.42571737 -51.5625 102.125 C-50.59959986 99.39678295 -49.71119543 97.57145128 -48.0625 95.125 C-46.35752315 92.54170174 -45.41962161 90.65210521 -44.375 87.8125 C-42.52201954 83.00038725 -40.24415732 78.53579539 -37.8125 74 C-33.14531697 65.269676 -28.65224894 56.45730858 -24.21469116 47.60864258 C-23.451965 46.08864479 -22.68768407 44.5694261 -21.92178345 43.05102539 C-20.83037639 40.88635528 -19.74454448 38.71897437 -18.66015625 36.55078125 C-18.33549377 35.9086116 -18.0108313 35.26644196 -17.67633057 34.60481262 C-16.0512065 31.33850018 -14.61969323 28.08063633 -13.36499023 24.65307617 C-12.15300722 21.40948794 -11.01967974 19.69290632 -9 17 C-8.17465245 14.95510907 -7.44456267 12.8961481 -6.74609375 10.8046875 C-6 9 -6 9 -4 7 C-3.67 6.175 -3.34 5.35 -3 4.5 C-2 2 -2 2 0 0 Z " fill="#000000" transform="translate(338,7)"/>
<path d="M0 0 C0.66 0 1.32 0 2 0 C2 220.77 2 441.54 2 669 C1.34 669 0.68 669 0 669 C-0.33 536.67 -0.66 404.34 -1 268 C-3.31 270.31 -5.62 272.62 -8 275 C-8.66 274.67 -9.32 274.34 -10 274 C-8.54782324 272.49403892 -7.08807139 270.99537896 -5.625 269.5 C-4.81289063 268.6646875 -4.00078125 267.829375 -3.1640625 266.96875 C-1 265 -1 265 1 265 C0.93993922 263.54052295 0.8511311 262.08220728 0.75 260.625 C0.70359375 259.81289063 0.6571875 259.00078125 0.609375 258.1640625 C0.2077908 255.81161073 0.2077908 255.81161073 -2.046875 254.7109375 C-2.69140625 254.47632813 -3.3359375 254.24171875 -4 254 C-2.68 253.67 -1.36 253.34 0 253 C0 169.51 0 86.02 0 0 Z " fill="#B2B2B2" transform="translate(679,0)"/>
<path d="M0 0 C-1.60582438 4.07474156 -4.5301814 6.71773784 -7.62890625 9.68359375 C-8.7574315 10.78683322 -9.88567828 11.89035759 -11.01367188 12.99414062 C-12.78974936 14.72054794 -14.56884053 16.44360367 -16.35327148 18.16137695 C-18.07899162 19.82662903 -19.79200917 21.50415103 -21.50390625 23.18359375 C-22.03931534 23.69208359 -22.57472443 24.20057343 -23.12635803 24.72447205 C-26.1170345 27.67423756 -27.68895579 29.75359143 -28 34 C-28.33 34 -28.66 34 -29 34 C-29.69411909 28.12321796 -29.69411909 28.12321796 -27.96563721 25.32620239 C-26.43752415 23.5957915 -24.83872867 21.99925775 -23.1640625 20.41015625 C-22.56951263 19.82076767 -21.97496277 19.23137909 -21.36239624 18.62413025 C-20.10776135 17.3865899 -18.8448161 16.15742515 -17.57421875 14.9362793 C-15.62268898 13.06027842 -13.69649213 11.16099888 -11.7734375 9.25585938 C-10.55086904 8.055874 -9.32695608 6.85725655 -8.1015625 5.66015625 C-7.23115829 4.80720726 -7.23115829 4.80720726 -6.34317017 3.93702698 C-2.23555719 0 -2.23555719 0 0 0 Z " fill="#C8C7C5" transform="translate(543,398)"/>
</svg>
