<svg width="15" height="15" viewBox="0 0 15 15" fill="none" xmlns="http://www.w3.org/2000/svg">
<path d="M12.5 1.25H2.5C1.8125 1.25 1.25 1.8125 1.25 2.5V13.75L3.75 11.25H12.5C13.1875 11.25 13.75 10.6875 13.75 10V2.5C13.75 1.8125 13.1875 1.25 12.5 1.25ZM3.75 8.75V7.20625L8.05 2.90625C8.175 2.78125 8.36875 2.78125 8.49375 2.90625L9.6 4.0125C9.725 4.1375 9.725 4.33125 9.6 4.45625L5.29375 8.75H3.75ZM10.625 8.75H6.5625L7.8125 7.5H10.625C10.9688 7.5 11.25 7.78125 11.25 8.125C11.25 8.46875 10.9688 8.75 10.625 8.75Z" fill="#FAFAFA"/>
</svg>
